<mxfile host="app.diagrams.net" modified="2021-10-06T15:54:00.492Z" agent="5.0 (Windows NT 10.0; Win64; x64) AppleWebKit/537.36 (KHTML, like Gecko) Chrome/90.0.4430.212 Safari/537.36 Edg/90.0.818.62" etag="Jf23qrnyr2YNs9Z5DAHZ" version="15.2.5" type="github" pages="2">
  <diagram id="yPxyJZ8AM_hMuL3Unpa9" name="complex gitflow">
    <mxGraphModel dx="1422" dy="772" grid="1" gridSize="10" guides="1" tooltips="1" connect="1" arrows="1" fold="1" page="1" pageScale="1" pageWidth="1100" pageHeight="850" math="0" shadow="0">
      <root>
        <mxCell id="0" />
        <mxCell id="1" parent="0" />
        <mxCell id="uWUnNED6HEl2aK5fdaIb-7" value="Hotfix Commit" style="text;html=1;strokeColor=none;fillColor=none;align=center;verticalAlign=middle;whiteSpace=wrap;overflow=hidden;" parent="1" vertex="1">
          <mxGeometry x="427.25" y="226" width="80" height="30" as="geometry" />
        </mxCell>
        <mxCell id="uWUnNED6HEl2aK5fdaIb-8" value="" style="edgeStyle=orthogonalEdgeStyle;rounded=0;html=1;jettySize=auto;orthogonalLoop=1;plain-blue;endArrow=none;endFill=0;strokeWidth=4;strokeColor=#000000;entryX=0;entryY=0.5;entryDx=0;entryDy=0;entryPerimeter=0;" parent="1" source="uWUnNED6HEl2aK5fdaIb-10" target="9hBKPDzoitwpIBdzFDQ7-16" edge="1">
          <mxGeometry x="292.25" y="211" as="geometry">
            <mxPoint x="442.25" y="211" as="targetPoint" />
          </mxGeometry>
        </mxCell>
        <mxCell id="uWUnNED6HEl2aK5fdaIb-9" style="edgeStyle=orthogonalEdgeStyle;curved=1;rounded=0;html=1;exitX=1;exitY=0.5;exitPerimeter=0;entryX=0;entryY=0.5;entryPerimeter=0;endArrow=none;endFill=0;jettySize=auto;orthogonalLoop=1;strokeWidth=4;fontSize=15;" parent="1" source="uWUnNED6HEl2aK5fdaIb-10" target="uWUnNED6HEl2aK5fdaIb-15" edge="1">
          <mxGeometry relative="1" as="geometry" />
        </mxCell>
        <mxCell id="uWUnNED6HEl2aK5fdaIb-10" value="" style="verticalLabelPosition=bottom;verticalAlign=top;html=1;strokeWidth=4;shape=mxgraph.flowchart.on-page_reference;plain-blue;gradientColor=none;fillColor=#B5E3Fe;strokeColor=#000000;" parent="1" vertex="1">
          <mxGeometry x="262.25" y="196" width="30" height="30" as="geometry" />
        </mxCell>
        <mxCell id="uWUnNED6HEl2aK5fdaIb-80" value="" style="edgeStyle=orthogonalEdgeStyle;curved=1;rounded=0;orthogonalLoop=1;jettySize=auto;html=1;endArrow=none;endFill=0;strokeWidth=4;entryX=0;entryY=0.5;entryDx=0;entryDy=0;entryPerimeter=0;" parent="1" source="uWUnNED6HEl2aK5fdaIb-11" target="uWUnNED6HEl2aK5fdaIb-109" edge="1">
          <mxGeometry relative="1" as="geometry">
            <mxPoint x="734.4999999999995" y="211" as="targetPoint" />
          </mxGeometry>
        </mxCell>
        <mxCell id="uWUnNED6HEl2aK5fdaIb-105" style="edgeStyle=orthogonalEdgeStyle;curved=1;rounded=0;orthogonalLoop=1;jettySize=auto;html=1;exitX=1;exitY=0.5;exitDx=0;exitDy=0;exitPerimeter=0;entryX=0;entryY=0.5;entryDx=0;entryDy=0;entryPerimeter=0;endArrow=none;endFill=0;strokeWidth=4;fontFamily=Courier New;fontColor=#009900;" parent="1" source="uWUnNED6HEl2aK5fdaIb-11" target="uWUnNED6HEl2aK5fdaIb-104" edge="1">
          <mxGeometry relative="1" as="geometry" />
        </mxCell>
        <mxCell id="uWUnNED6HEl2aK5fdaIb-11" value="" style="verticalLabelPosition=bottom;verticalAlign=top;html=1;strokeWidth=4;shape=mxgraph.flowchart.on-page_reference;plain-blue;gradientColor=none;strokeColor=#000000;fillColor=#B5E3FE;" parent="1" vertex="1">
          <mxGeometry x="622.25" y="196" width="30" height="30" as="geometry" />
        </mxCell>
        <mxCell id="uWUnNED6HEl2aK5fdaIb-109" value="" style="verticalLabelPosition=bottom;verticalAlign=top;html=1;strokeWidth=4;shape=mxgraph.flowchart.on-page_reference;plain-blue;gradientColor=none;strokeColor=#33001A;fillColor=#B5E3FE;" parent="1" vertex="1">
          <mxGeometry x="861.25" y="196" width="30" height="30" as="geometry" />
        </mxCell>
        <mxCell id="uWUnNED6HEl2aK5fdaIb-12" value="" style="edgeStyle=orthogonalEdgeStyle;rounded=0;html=1;jettySize=auto;orthogonalLoop=1;strokeWidth=4;endArrow=none;endFill=0;" parent="1" target="uWUnNED6HEl2aK5fdaIb-10" edge="1">
          <mxGeometry x="192.25" y="211" as="geometry">
            <mxPoint x="150" y="211" as="sourcePoint" />
          </mxGeometry>
        </mxCell>
        <mxCell id="uWUnNED6HEl2aK5fdaIb-13" value="main" style="text;html=1;strokeColor=none;fillColor=none;align=center;verticalAlign=middle;whiteSpace=wrap;overflow=hidden;fontSize=14;fontStyle=1;fontFamily=Courier New;" parent="1" vertex="1">
          <mxGeometry x="83" y="190" width="50" height="42" as="geometry" />
        </mxCell>
        <mxCell id="uWUnNED6HEl2aK5fdaIb-14" style="edgeStyle=orthogonalEdgeStyle;curved=1;rounded=0;html=1;exitX=1;exitY=0.5;exitPerimeter=0;endArrow=none;endFill=0;jettySize=auto;orthogonalLoop=1;strokeWidth=4;fontSize=15;" parent="1" source="uWUnNED6HEl2aK5fdaIb-15" target="uWUnNED6HEl2aK5fdaIb-17" edge="1">
          <mxGeometry relative="1" as="geometry" />
        </mxCell>
        <mxCell id="uWUnNED6HEl2aK5fdaIb-15" value="" style="verticalLabelPosition=bottom;verticalAlign=top;html=1;strokeWidth=4;shape=mxgraph.flowchart.on-page_reference;plain-purple;gradientColor=none;strokeColor=#000000;fillColor=#D5E8D4;" parent="1" vertex="1">
          <mxGeometry x="339.75" y="281" width="30" height="30" as="geometry" />
        </mxCell>
        <mxCell id="uWUnNED6HEl2aK5fdaIb-16" style="edgeStyle=orthogonalEdgeStyle;curved=1;rounded=0;html=1;exitX=1;exitY=0.5;exitPerimeter=0;entryX=0;entryY=0.5;entryPerimeter=0;endArrow=none;endFill=0;jettySize=auto;orthogonalLoop=1;strokeWidth=4;fontSize=15;" parent="1" source="uWUnNED6HEl2aK5fdaIb-17" target="uWUnNED6HEl2aK5fdaIb-19" edge="1">
          <mxGeometry relative="1" as="geometry" />
        </mxCell>
        <mxCell id="uWUnNED6HEl2aK5fdaIb-17" value="" style="verticalLabelPosition=bottom;verticalAlign=top;html=1;strokeWidth=4;shape=mxgraph.flowchart.on-page_reference;plain-purple;gradientColor=none;strokeColor=#000000;fillColor=#D5E8D4;" parent="1" vertex="1">
          <mxGeometry x="446.75" y="281" width="30" height="30" as="geometry" />
        </mxCell>
        <mxCell id="uWUnNED6HEl2aK5fdaIb-18" style="edgeStyle=orthogonalEdgeStyle;curved=1;rounded=0;html=1;exitX=1;exitY=0.5;exitPerimeter=0;entryX=0;entryY=0.5;entryPerimeter=0;endArrow=none;endFill=0;jettySize=auto;orthogonalLoop=1;strokeWidth=4;fontSize=15;" parent="1" source="uWUnNED6HEl2aK5fdaIb-19" target="uWUnNED6HEl2aK5fdaIb-11" edge="1">
          <mxGeometry relative="1" as="geometry" />
        </mxCell>
        <mxCell id="uWUnNED6HEl2aK5fdaIb-19" value="" style="verticalLabelPosition=bottom;verticalAlign=top;html=1;strokeWidth=4;shape=mxgraph.flowchart.on-page_reference;plain-purple;gradientColor=none;strokeColor=#000000;fillColor=#D5E8D4;" parent="1" vertex="1">
          <mxGeometry x="549.75" y="281" width="30" height="30" as="geometry" />
        </mxCell>
        <mxCell id="uWUnNED6HEl2aK5fdaIb-20" value="1.1.0-release" style="text;html=1;strokeColor=none;fillColor=none;align=left;verticalAlign=middle;whiteSpace=wrap;overflow=hidden;fontSize=14;fontStyle=1;fontFamily=Courier New;" parent="1" vertex="1">
          <mxGeometry x="88.75" y="286" width="240" height="20" as="geometry" />
        </mxCell>
        <mxCell id="uWUnNED6HEl2aK5fdaIb-71" value="" style="edgeStyle=orthogonalEdgeStyle;rounded=0;orthogonalLoop=1;jettySize=auto;html=1;endArrow=none;endFill=0;strokeWidth=4;" parent="1" source="uWUnNED6HEl2aK5fdaIb-69" target="uWUnNED6HEl2aK5fdaIb-70" edge="1">
          <mxGeometry relative="1" as="geometry" />
        </mxCell>
        <mxCell id="uWUnNED6HEl2aK5fdaIb-75" style="edgeStyle=orthogonalEdgeStyle;rounded=0;orthogonalLoop=1;jettySize=auto;html=1;entryX=1;entryY=0.5;entryDx=0;entryDy=0;entryPerimeter=0;endArrow=none;endFill=0;strokeWidth=4;curved=1;" parent="1" source="uWUnNED6HEl2aK5fdaIb-69" target="uWUnNED6HEl2aK5fdaIb-15" edge="1">
          <mxGeometry relative="1" as="geometry" />
        </mxCell>
        <mxCell id="uWUnNED6HEl2aK5fdaIb-94" style="edgeStyle=orthogonalEdgeStyle;curved=1;rounded=0;orthogonalLoop=1;jettySize=auto;html=1;exitX=1;exitY=0.5;exitDx=0;exitDy=0;exitPerimeter=0;entryX=0;entryY=0.5;entryDx=0;entryDy=0;entryPerimeter=0;endArrow=none;endFill=0;strokeWidth=4;fontFamily=Courier New;fontColor=#009900;" parent="1" source="uWUnNED6HEl2aK5fdaIb-69" target="uWUnNED6HEl2aK5fdaIb-82" edge="1">
          <mxGeometry relative="1" as="geometry" />
        </mxCell>
        <mxCell id="uWUnNED6HEl2aK5fdaIb-69" value="" style="verticalLabelPosition=bottom;verticalAlign=top;html=1;strokeWidth=4;shape=mxgraph.flowchart.on-page_reference;plain-purple;gradientColor=none;strokeColor=#000000;fillColor=#D5E8D4;" parent="1" vertex="1">
          <mxGeometry x="416.75" y="361" width="30" height="30" as="geometry" />
        </mxCell>
        <mxCell id="uWUnNED6HEl2aK5fdaIb-78" value="" style="edgeStyle=orthogonalEdgeStyle;curved=1;rounded=0;orthogonalLoop=1;jettySize=auto;html=1;endArrow=none;endFill=0;strokeWidth=4;" parent="1" source="uWUnNED6HEl2aK5fdaIb-70" target="uWUnNED6HEl2aK5fdaIb-77" edge="1">
          <mxGeometry relative="1" as="geometry" />
        </mxCell>
        <mxCell id="uWUnNED6HEl2aK5fdaIb-70" value="" style="verticalLabelPosition=bottom;verticalAlign=top;html=1;strokeWidth=4;shape=mxgraph.flowchart.on-page_reference;plain-purple;gradientColor=none;strokeColor=#000000;fillColor=#D5E8D4;" parent="1" vertex="1">
          <mxGeometry x="514.75" y="361" width="30" height="30" as="geometry" />
        </mxCell>
        <mxCell id="uWUnNED6HEl2aK5fdaIb-96" value="" style="edgeStyle=orthogonalEdgeStyle;curved=1;rounded=0;orthogonalLoop=1;jettySize=auto;html=1;endArrow=none;endFill=0;strokeWidth=4;fontFamily=Courier New;fontColor=#009900;" parent="1" source="uWUnNED6HEl2aK5fdaIb-77" target="uWUnNED6HEl2aK5fdaIb-95" edge="1">
          <mxGeometry relative="1" as="geometry" />
        </mxCell>
        <mxCell id="uWUnNED6HEl2aK5fdaIb-77" value="" style="verticalLabelPosition=bottom;verticalAlign=top;html=1;strokeWidth=4;shape=mxgraph.flowchart.on-page_reference;plain-purple;gradientColor=none;strokeColor=#000000;fillColor=#D5E8D4;" parent="1" vertex="1">
          <mxGeometry x="594.75" y="361" width="30" height="30" as="geometry" />
        </mxCell>
        <mxCell id="uWUnNED6HEl2aK5fdaIb-108" style="edgeStyle=orthogonalEdgeStyle;curved=1;rounded=0;orthogonalLoop=1;jettySize=auto;html=1;entryX=0;entryY=0.5;entryDx=0;entryDy=0;entryPerimeter=0;endArrow=none;endFill=0;strokeWidth=4;fontFamily=Courier New;fontColor=#009900;" parent="1" source="uWUnNED6HEl2aK5fdaIb-95" target="uWUnNED6HEl2aK5fdaIb-106" edge="1">
          <mxGeometry relative="1" as="geometry" />
        </mxCell>
        <mxCell id="uWUnNED6HEl2aK5fdaIb-95" value="" style="verticalLabelPosition=bottom;verticalAlign=top;html=1;strokeWidth=4;shape=mxgraph.flowchart.on-page_reference;plain-purple;gradientColor=none;strokeColor=#000000;fillColor=#D5E8D4;" parent="1" vertex="1">
          <mxGeometry x="696.75" y="361" width="30" height="30" as="geometry" />
        </mxCell>
        <mxCell id="uWUnNED6HEl2aK5fdaIb-76" value="develop" style="text;html=1;strokeColor=none;fillColor=none;align=left;verticalAlign=middle;whiteSpace=wrap;overflow=hidden;fontSize=14;fontStyle=1;fontFamily=Courier New;" parent="1" vertex="1">
          <mxGeometry x="87.75" y="364" width="91" height="20" as="geometry" />
        </mxCell>
        <mxCell id="uWUnNED6HEl2aK5fdaIb-81" value="" style="edgeStyle=orthogonalEdgeStyle;rounded=0;orthogonalLoop=1;jettySize=auto;html=1;endArrow=none;endFill=0;strokeWidth=4;" parent="1" source="uWUnNED6HEl2aK5fdaIb-82" target="uWUnNED6HEl2aK5fdaIb-84" edge="1">
          <mxGeometry relative="1" as="geometry" />
        </mxCell>
        <mxCell id="uWUnNED6HEl2aK5fdaIb-82" value="" style="verticalLabelPosition=bottom;verticalAlign=top;html=1;strokeWidth=4;shape=mxgraph.flowchart.on-page_reference;plain-purple;gradientColor=none;strokeColor=#000000;fillColor=#D5E8D4;" parent="1" vertex="1">
          <mxGeometry x="500.75" y="440" width="30" height="30" as="geometry" />
        </mxCell>
        <mxCell id="uWUnNED6HEl2aK5fdaIb-97" style="edgeStyle=orthogonalEdgeStyle;curved=1;rounded=0;orthogonalLoop=1;jettySize=auto;html=1;exitX=1;exitY=0.5;exitDx=0;exitDy=0;exitPerimeter=0;entryX=0;entryY=0.5;entryDx=0;entryDy=0;entryPerimeter=0;endArrow=none;endFill=0;strokeWidth=4;fontFamily=Courier New;fontColor=#009900;" parent="1" source="uWUnNED6HEl2aK5fdaIb-84" target="uWUnNED6HEl2aK5fdaIb-95" edge="1">
          <mxGeometry relative="1" as="geometry" />
        </mxCell>
        <mxCell id="uWUnNED6HEl2aK5fdaIb-84" value="" style="verticalLabelPosition=bottom;verticalAlign=top;html=1;strokeWidth=4;shape=mxgraph.flowchart.on-page_reference;plain-purple;gradientColor=none;strokeColor=#000000;fillColor=#D5E8D4;" parent="1" vertex="1">
          <mxGeometry x="611.75" y="440" width="30" height="30" as="geometry" />
        </mxCell>
        <mxCell id="uWUnNED6HEl2aK5fdaIb-86" value="JIRA-35--example feature" style="text;html=1;strokeColor=none;fillColor=none;align=left;verticalAlign=middle;whiteSpace=wrap;overflow=hidden;fontSize=14;fontStyle=1;fontFamily=Courier New;" parent="1" vertex="1">
          <mxGeometry x="87.5" y="445" width="240" height="20" as="geometry" />
        </mxCell>
        <mxCell id="uWUnNED6HEl2aK5fdaIb-87" value="The development or sprint branch" style="text;html=1;strokeColor=none;fillColor=none;align=left;verticalAlign=middle;whiteSpace=wrap;overflow=hidden;fontSize=14;fontStyle=0;fontColor=#009900;" parent="1" vertex="1">
          <mxGeometry x="85.75" y="384" width="240" height="20" as="geometry" />
        </mxCell>
        <mxCell id="uWUnNED6HEl2aK5fdaIb-88" value="Your feature branch" style="text;html=1;strokeColor=none;fillColor=none;align=left;verticalAlign=middle;whiteSpace=wrap;overflow=hidden;fontSize=14;fontStyle=0;fontColor=#009900;" parent="1" vertex="1">
          <mxGeometry x="85.75" y="465" width="240" height="20" as="geometry" />
        </mxCell>
        <mxCell id="uWUnNED6HEl2aK5fdaIb-89" value="The release branch" style="text;html=1;strokeColor=none;fillColor=none;align=left;verticalAlign=middle;whiteSpace=wrap;overflow=hidden;fontSize=14;fontStyle=0;fontColor=#009900;" parent="1" vertex="1">
          <mxGeometry x="86.75" y="306" width="240" height="20" as="geometry" />
        </mxCell>
        <mxCell id="uWUnNED6HEl2aK5fdaIb-90" value="The main branch&lt;br&gt;" style="text;html=1;strokeColor=none;fillColor=none;align=left;verticalAlign=middle;whiteSpace=wrap;overflow=hidden;fontSize=14;fontStyle=0;fontColor=#009900;" parent="1" vertex="1">
          <mxGeometry x="88.25" y="220" width="146.75" height="20" as="geometry" />
        </mxCell>
        <mxCell id="uWUnNED6HEl2aK5fdaIb-91" value="" style="endArrow=classic;html=1;strokeWidth=1;fontFamily=Courier New;fontColor=#009900;" parent="1" edge="1">
          <mxGeometry width="50" height="50" relative="1" as="geometry">
            <mxPoint x="306.75" y="454.5" as="sourcePoint" />
            <mxPoint x="456.75" y="455" as="targetPoint" />
          </mxGeometry>
        </mxCell>
        <mxCell id="uWUnNED6HEl2aK5fdaIb-92" value="" style="endArrow=classic;html=1;strokeWidth=1;fontFamily=Courier New;fontColor=#009900;" parent="1" edge="1">
          <mxGeometry width="50" height="50" relative="1" as="geometry">
            <mxPoint x="186.75" y="374" as="sourcePoint" />
            <mxPoint x="376.75" y="374" as="targetPoint" />
          </mxGeometry>
        </mxCell>
        <mxCell id="uWUnNED6HEl2aK5fdaIb-93" value="" style="endArrow=classic;html=1;strokeWidth=1;fontFamily=Courier New;fontColor=#009900;" parent="1" edge="1">
          <mxGeometry width="50" height="50" relative="1" as="geometry">
            <mxPoint x="216.75" y="296" as="sourcePoint" />
            <mxPoint x="296.75" y="296" as="targetPoint" />
          </mxGeometry>
        </mxCell>
        <mxCell id="uWUnNED6HEl2aK5fdaIb-101" value="Tag: 1.1.0" style="text;html=1;strokeColor=none;fillColor=none;align=center;verticalAlign=middle;whiteSpace=wrap;overflow=hidden;fontSize=14;" parent="1" vertex="1">
          <mxGeometry x="590.25" y="170" width="110" height="20" as="geometry" />
        </mxCell>
        <mxCell id="uWUnNED6HEl2aK5fdaIb-103" value="Tag: 1.0.0" style="text;html=1;strokeColor=none;fillColor=none;align=center;verticalAlign=middle;whiteSpace=wrap;overflow=hidden;fontSize=14;" parent="1" vertex="1">
          <mxGeometry x="242.25" y="170" width="70" height="20" as="geometry" />
        </mxCell>
        <mxCell id="uWUnNED6HEl2aK5fdaIb-107" value="" style="edgeStyle=orthogonalEdgeStyle;curved=1;rounded=0;orthogonalLoop=1;jettySize=auto;html=1;endArrow=none;endFill=0;strokeWidth=4;fontFamily=Courier New;fontColor=#009900;" parent="1" source="uWUnNED6HEl2aK5fdaIb-104" target="uWUnNED6HEl2aK5fdaIb-106" edge="1">
          <mxGeometry relative="1" as="geometry" />
        </mxCell>
        <mxCell id="uWUnNED6HEl2aK5fdaIb-104" value="" style="verticalLabelPosition=bottom;verticalAlign=top;html=1;strokeWidth=4;shape=mxgraph.flowchart.on-page_reference;plain-purple;gradientColor=none;strokeColor=#000000;fillColor=#D5E8D4;" parent="1" vertex="1">
          <mxGeometry x="696.75" y="281" width="30" height="30" as="geometry" />
        </mxCell>
        <mxCell id="uWUnNED6HEl2aK5fdaIb-115" style="edgeStyle=orthogonalEdgeStyle;curved=1;rounded=0;orthogonalLoop=1;jettySize=auto;html=1;entryX=0;entryY=0.5;entryDx=0;entryDy=0;entryPerimeter=0;endArrow=none;endFill=0;strokeWidth=4;fontFamily=Courier New;fontColor=#009900;" parent="1" source="uWUnNED6HEl2aK5fdaIb-106" target="uWUnNED6HEl2aK5fdaIb-109" edge="1">
          <mxGeometry relative="1" as="geometry" />
        </mxCell>
        <mxCell id="uWUnNED6HEl2aK5fdaIb-106" value="" style="verticalLabelPosition=bottom;verticalAlign=top;html=1;strokeWidth=4;shape=mxgraph.flowchart.on-page_reference;plain-purple;gradientColor=none;strokeColor=#000000;fillColor=#D5E8D4;" parent="1" vertex="1">
          <mxGeometry x="786.75" y="281" width="30" height="30" as="geometry" />
        </mxCell>
        <mxCell id="uWUnNED6HEl2aK5fdaIb-116" value="Tag: 1.2.0" style="text;html=1;strokeColor=none;fillColor=none;align=center;verticalAlign=middle;whiteSpace=wrap;overflow=hidden;fontSize=14;" parent="1" vertex="1">
          <mxGeometry x="812.25" y="168" width="110" height="20" as="geometry" />
        </mxCell>
        <mxCell id="uWUnNED6HEl2aK5fdaIb-117" value="" style="endArrow=classic;html=1;strokeWidth=1;fontFamily=Courier New;fontColor=#009900;exitX=0.5;exitY=0;exitDx=0;exitDy=0;" parent="1" source="fSnZ5vnYTslC5NarKmr_-5" edge="1">
          <mxGeometry width="50" height="50" relative="1" as="geometry">
            <mxPoint x="711.25" y="635.5" as="sourcePoint" />
            <mxPoint x="711.25" y="404" as="targetPoint" />
          </mxGeometry>
        </mxCell>
        <mxCell id="fSnZ5vnYTslC5NarKmr_-1" value="" style="endArrow=classic;html=1;strokeWidth=1;fontFamily=Courier New;fontColor=#009900;" parent="1" edge="1">
          <mxGeometry width="50" height="50" relative="1" as="geometry">
            <mxPoint x="801.75" y="375" as="sourcePoint" />
            <mxPoint x="801.75" y="325" as="targetPoint" />
          </mxGeometry>
        </mxCell>
        <mxCell id="fSnZ5vnYTslC5NarKmr_-4" value="&lt;span style=&quot;text-align: center&quot;&gt;Feel free to add notes here about the process of merging into the release branch.&lt;br&gt;&lt;/span&gt;" style="text;html=1;strokeColor=none;fillColor=none;align=left;verticalAlign=middle;whiteSpace=wrap;overflow=hidden;fontSize=12;fontStyle=0;fontColor=#000000;" parent="1" vertex="1">
          <mxGeometry x="776.75" y="375" width="163.25" height="66" as="geometry" />
        </mxCell>
        <mxCell id="fSnZ5vnYTslC5NarKmr_-5" value="&lt;div style=&quot;&quot;&gt;&lt;span&gt;Feel free to add notes here about the process of merging feature branches.&lt;/span&gt;&lt;/div&gt;" style="text;html=1;strokeColor=none;fillColor=none;align=left;verticalAlign=middle;whiteSpace=wrap;overflow=hidden;fontSize=12;fontStyle=0;fontColor=#000000;" parent="1" vertex="1">
          <mxGeometry x="502.63" y="485" width="418.25" height="36" as="geometry" />
        </mxCell>
        <mxCell id="fSnZ5vnYTslC5NarKmr_-9" value="" style="edgeStyle=orthogonalEdgeStyle;rounded=0;orthogonalLoop=1;jettySize=auto;html=1;fontSize=12;fontColor=#000000;entryX=0;entryY=0.5;entryDx=0;entryDy=0;" parent="1" source="fSnZ5vnYTslC5NarKmr_-8" target="uWUnNED6HEl2aK5fdaIb-103" edge="1">
          <mxGeometry relative="1" as="geometry">
            <mxPoint x="222.25" y="180" as="targetPoint" />
            <Array as="points">
              <mxPoint x="222.25" y="180" />
              <mxPoint x="222.25" y="180" />
            </Array>
          </mxGeometry>
        </mxCell>
        <mxCell id="fSnZ5vnYTslC5NarKmr_-8" value="&lt;span style=&quot;text-align: center; font-size: 11px;&quot;&gt;Each tag represents a production release.&lt;/span&gt;" style="text;html=1;strokeColor=none;fillColor=none;align=left;verticalAlign=middle;whiteSpace=wrap;overflow=hidden;fontSize=11;fontStyle=0;fontColor=#000000;" parent="1" vertex="1">
          <mxGeometry x="94.5" y="158" width="120" height="38" as="geometry" />
        </mxCell>
        <UserObject label="Example diagram for a workflow similar to &quot;Git-flow&quot; :" link="https://nvie.com/posts/a-successful-git-branching-model/" id="9hBKPDzoitwpIBdzFDQ7-2">
          <mxCell style="text;whiteSpace=wrap;html=1;fontStyle=1;fontSize=16;" parent="1" vertex="1">
            <mxGeometry x="82.25" y="90" width="427.75" height="20" as="geometry" />
          </mxCell>
        </UserObject>
        <UserObject label="&lt;a href=&quot;https://nvie.com/posts/a-successful-git-branching-model/&quot;&gt;https://nvie.com/posts/a-successful-git-branching-model/&lt;/a&gt;" link="https://nvie.com/posts/a-successful-git-branching-model/" id="9hBKPDzoitwpIBdzFDQ7-3">
          <mxCell style="text;whiteSpace=wrap;html=1;" parent="1" vertex="1">
            <mxGeometry x="115" y="115" width="355" height="20" as="geometry" />
          </mxCell>
        </UserObject>
        <UserObject label="See:" link="https://nvie.com/posts/a-successful-git-branching-model/" id="9hBKPDzoitwpIBdzFDQ7-7">
          <mxCell style="text;whiteSpace=wrap;html=1;" parent="1" vertex="1">
            <mxGeometry x="82.25" y="115" width="32.75" height="20" as="geometry" />
          </mxCell>
        </UserObject>
        <mxCell id="9hBKPDzoitwpIBdzFDQ7-14" value="" style="endArrow=classic;html=1;strokeWidth=1;fontFamily=Courier New;fontColor=#009900;" parent="1" edge="1">
          <mxGeometry width="50" height="50" relative="1" as="geometry">
            <mxPoint x="877.25" y="280" as="sourcePoint" />
            <mxPoint x="877.25" y="240" as="targetPoint" />
          </mxGeometry>
        </mxCell>
        <mxCell id="9hBKPDzoitwpIBdzFDQ7-15" value="&lt;span style=&quot;text-align: center&quot;&gt;Feel free to add notes here about the process of merging into the release branch.&lt;br&gt;&lt;br&gt;&lt;/span&gt;" style="text;html=1;strokeColor=none;fillColor=none;align=left;verticalAlign=middle;whiteSpace=wrap;overflow=hidden;fontSize=12;fontStyle=0;fontColor=#000000;" parent="1" vertex="1">
          <mxGeometry x="852.25" y="281" width="167.75" height="81" as="geometry" />
        </mxCell>
        <mxCell id="9hBKPDzoitwpIBdzFDQ7-21" value="" style="edgeStyle=orthogonalEdgeStyle;rounded=0;orthogonalLoop=1;jettySize=auto;html=1;fontSize=15;endArrow=none;endFill=0;strokeWidth=4;entryX=0;entryY=0.5;entryDx=0;entryDy=0;entryPerimeter=0;" parent="1" source="9hBKPDzoitwpIBdzFDQ7-16" target="uWUnNED6HEl2aK5fdaIb-11" edge="1">
          <mxGeometry relative="1" as="geometry">
            <mxPoint x="560.25" y="211" as="targetPoint" />
          </mxGeometry>
        </mxCell>
        <mxCell id="9hBKPDzoitwpIBdzFDQ7-16" value="" style="verticalLabelPosition=bottom;verticalAlign=top;html=1;strokeWidth=4;shape=mxgraph.flowchart.on-page_reference;plain-blue;gradientColor=#EA6B66;strokeColor=#B85450;fillColor=#F8CECC;" parent="1" vertex="1">
          <mxGeometry x="452.25" y="196" width="30" height="30" as="geometry" />
        </mxCell>
        <mxCell id="9hBKPDzoitwpIBdzFDQ7-61" value="Tag: 1.0.1" style="text;html=1;strokeColor=none;fillColor=none;align=center;verticalAlign=middle;whiteSpace=wrap;overflow=hidden;fontSize=14;" parent="1" vertex="1">
          <mxGeometry x="428.5" y="170" width="70" height="20" as="geometry" />
        </mxCell>
      </root>
    </mxGraphModel>
  </diagram>
  <diagram id="nE2Cypyvz2oIwe1PdyYN" name="Page-2">
    <mxGraphModel dx="1673" dy="1735" grid="1" gridSize="10" guides="1" tooltips="1" connect="1" arrows="1" fold="1" page="1" pageScale="1" pageWidth="1169" pageHeight="827" background="none" math="0" shadow="0">
      <root>
        <mxCell id="QjODD_lfrR-5905HKVFo-0" />
        <mxCell id="QjODD_lfrR-5905HKVFo-1" parent="QjODD_lfrR-5905HKVFo-0" />
        <mxCell id="QjODD_lfrR-5905HKVFo-2" value="" style="aspect=fixed;html=1;points=[];align=center;image;fontSize=12;image=img/lib/azure2/identity/Users.svg;fontColor=#1A1A1A;strokeColor=#D0CEE2;fillColor=#5D7F99;rounded=1;" vertex="1" parent="QjODD_lfrR-5905HKVFo-1">
          <mxGeometry x="518" y="-250" width="64" height="70" as="geometry" />
        </mxCell>
        <mxCell id="QjODD_lfrR-5905HKVFo-4" value="MyWay RIA V1" style="pointerEvents=1;shadow=0;dashed=0;html=1;strokeColor=none;fillColor=#5D7F99;labelPosition=center;verticalLabelPosition=bottom;verticalAlign=top;outlineConnect=0;align=center;shape=mxgraph.office.concepts.web_page;fontColor=#1A1A1A;rounded=1;" vertex="1" parent="QjODD_lfrR-5905HKVFo-1">
          <mxGeometry x="518" y="-120" width="50" height="54" as="geometry" />
        </mxCell>
        <mxCell id="QjODD_lfrR-5905HKVFo-5" value="MyWay RIA V2" style="pointerEvents=1;shadow=0;dashed=0;html=1;strokeColor=none;fillColor=#5D7F99;labelPosition=center;verticalLabelPosition=bottom;verticalAlign=top;outlineConnect=0;align=center;shape=mxgraph.office.concepts.web_page;fontColor=#1A1A1A;rounded=1;" vertex="1" parent="QjODD_lfrR-5905HKVFo-1">
          <mxGeometry x="282.5" y="-120" width="50" height="54" as="geometry" />
        </mxCell>
        <mxCell id="QjODD_lfrR-5905HKVFo-6" value="MyWay ROA&amp;nbsp;" style="aspect=fixed;html=1;points=[];align=center;image;fontSize=12;image=img/lib/azure2/integration/API_Management_Services.svg;fontColor=#1A1A1A;strokeColor=#D0CEE2;fillColor=#5D7F99;rounded=1;" vertex="1" parent="QjODD_lfrR-5905HKVFo-1">
          <mxGeometry x="763.5" y="-120" width="65" height="60" as="geometry" />
        </mxCell>
        <mxCell id="QjODD_lfrR-5905HKVFo-9" value="Build et Tests" style="aspect=fixed;perimeter=ellipsePerimeter;html=1;align=center;shadow=0;dashed=0;fontColor=#1A1A1A;fontSize=12;spacingTop=3;image;image=img/lib/ibm/devops/build_test.svg;strokeColor=#D0CEE2;fillColor=#5D7F99;rounded=1;" vertex="1" parent="QjODD_lfrR-5905HKVFo-1">
          <mxGeometry x="332.5" y="570" width="60" height="60" as="geometry" />
        </mxCell>
        <mxCell id="QjODD_lfrR-5905HKVFo-13" value="Sources GIT" style="shape=image;html=1;verticalAlign=top;verticalLabelPosition=bottom;imageAspect=0;aspect=fixed;image=https://cdn3.iconfinder.com/data/icons/social-media-2169/24/social_media_social_media_logo_git-128.png;fontColor=#1A1A1A;strokeColor=#D0CEE2;fillColor=#5D7F99;rounded=1;" vertex="1" parent="QjODD_lfrR-5905HKVFo-1">
          <mxGeometry x="1270" y="368" width="90" height="90" as="geometry" />
        </mxCell>
        <mxCell id="QjODD_lfrR-5905HKVFo-15" value="Bitbucket Server" style="image;image=img/lib/atlassian/Bitbucket_Logo.svg;fontColor=#1A1A1A;strokeColor=#D0CEE2;fillColor=#5D7F99;rounded=1;" vertex="1" parent="QjODD_lfrR-5905HKVFo-1">
          <mxGeometry x="766" y="130" width="57" height="50" as="geometry" />
        </mxCell>
        <mxCell id="QjODD_lfrR-5905HKVFo-16" value="Team Foundation Server" style="aspect=fixed;html=1;points=[];align=center;image;fontSize=12;image=img/lib/azure2/general/TFS_VC_Repository.svg;fontColor=#1A1A1A;strokeColor=#D0CEE2;fillColor=#5D7F99;rounded=1;" vertex="1" parent="QjODD_lfrR-5905HKVFo-1">
          <mxGeometry x="390" y="130" width="68" height="68" as="geometry" />
        </mxCell>
        <mxCell id="QjODD_lfrR-5905HKVFo-17" value="" style="aspect=fixed;html=1;points=[];align=center;image;fontSize=12;image=img/lib/azure2/general/Help_and_Support.svg;fontColor=#1A1A1A;strokeColor=#D0CEE2;fillColor=#5D7F99;rounded=1;" vertex="1" parent="QjODD_lfrR-5905HKVFo-1">
          <mxGeometry x="64" y="30" width="56.00000000000001" height="69" as="geometry" />
        </mxCell>
        <mxCell id="QjODD_lfrR-5905HKVFo-36" value="" style="aspect=fixed;html=1;points=[];align=center;image;fontSize=12;image=img/lib/azure2/general/Help_and_Support.svg;fontColor=#1A1A1A;strokeColor=#D0CEE2;fillColor=#5D7F99;rounded=1;" vertex="1" parent="QjODD_lfrR-5905HKVFo-1">
          <mxGeometry x="1070" y="30" width="56.00000000000001" height="69" as="geometry" />
        </mxCell>
        <mxCell id="QjODD_lfrR-5905HKVFo-59" value="" style="edgeStyle=orthogonalEdgeStyle;orthogonalLoop=1;jettySize=auto;html=1;fontColor=#1A1A1A;strokeColor=#736CA8;curved=1;" edge="1" parent="QjODD_lfrR-5905HKVFo-1" source="QjODD_lfrR-5905HKVFo-39" target="QjODD_lfrR-5905HKVFo-57">
          <mxGeometry relative="1" as="geometry" />
        </mxCell>
        <mxCell id="QjODD_lfrR-5905HKVFo-39" value="" style="shape=image;html=1;verticalAlign=top;verticalLabelPosition=bottom;imageAspect=0;aspect=fixed;image=https://cdn0.iconfinder.com/data/icons/ikooni-outline-free-basic/128/free-11-128.png;fontColor=#1A1A1A;strokeColor=#D0CEE2;fillColor=#5D7F99;imageBackground=none;rounded=1;" vertex="1" parent="QjODD_lfrR-5905HKVFo-1">
          <mxGeometry x="430" y="221" width="65" height="65" as="geometry" />
        </mxCell>
        <mxCell id="QjODD_lfrR-5905HKVFo-64" value="" style="edgeStyle=orthogonalEdgeStyle;orthogonalLoop=1;jettySize=auto;html=1;fontColor=#1A1A1A;strokeColor=#736CA8;exitX=1;exitY=0.5;exitDx=0;exitDy=0;curved=1;" edge="1" parent="QjODD_lfrR-5905HKVFo-1" source="QjODD_lfrR-5905HKVFo-45" target="QjODD_lfrR-5905HKVFo-60">
          <mxGeometry relative="1" as="geometry" />
        </mxCell>
        <mxCell id="QjODD_lfrR-5905HKVFo-66" value="" style="edgeStyle=orthogonalEdgeStyle;orthogonalLoop=1;jettySize=auto;html=1;fontColor=#1A1A1A;strokeColor=#736CA8;curved=1;" edge="1" parent="QjODD_lfrR-5905HKVFo-1" source="QjODD_lfrR-5905HKVFo-44" target="QjODD_lfrR-5905HKVFo-65">
          <mxGeometry relative="1" as="geometry" />
        </mxCell>
        <mxCell id="QjODD_lfrR-5905HKVFo-44" value="" style="shape=image;html=1;verticalAlign=top;verticalLabelPosition=bottom;imageAspect=0;aspect=fixed;image=https://cdn0.iconfinder.com/data/icons/ikooni-outline-free-basic/128/free-11-128.png;fontColor=#1A1A1A;strokeColor=#D0CEE2;fillColor=#5D7F99;imageBackground=none;rounded=1;" vertex="1" parent="QjODD_lfrR-5905HKVFo-1">
          <mxGeometry x="430" y="274" width="65" height="65" as="geometry" />
        </mxCell>
        <mxCell id="QjODD_lfrR-5905HKVFo-45" value="" style="shape=image;html=1;verticalAlign=top;verticalLabelPosition=bottom;imageAspect=0;aspect=fixed;image=https://cdn0.iconfinder.com/data/icons/ikooni-outline-free-basic/128/free-11-128.png;fontColor=#1A1A1A;strokeColor=#D0CEE2;fillColor=#5D7F99;imageBackground=none;rounded=1;" vertex="1" parent="QjODD_lfrR-5905HKVFo-1">
          <mxGeometry x="430" y="334" width="65" height="65" as="geometry" />
        </mxCell>
        <mxCell id="QjODD_lfrR-5905HKVFo-69" value="" style="edgeStyle=orthogonalEdgeStyle;orthogonalLoop=1;jettySize=auto;html=1;fontColor=#1A1A1A;strokeColor=#736CA8;curved=1;" edge="1" parent="QjODD_lfrR-5905HKVFo-1" source="QjODD_lfrR-5905HKVFo-46" target="QjODD_lfrR-5905HKVFo-68">
          <mxGeometry relative="1" as="geometry" />
        </mxCell>
        <mxCell id="QjODD_lfrR-5905HKVFo-46" value="" style="shape=image;html=1;verticalAlign=top;verticalLabelPosition=bottom;imageAspect=0;aspect=fixed;image=https://cdn0.iconfinder.com/data/icons/ikooni-outline-free-basic/128/free-11-128.png;fontColor=#1A1A1A;strokeColor=#D0CEE2;fillColor=#5D7F99;imageBackground=none;rounded=1;" vertex="1" parent="QjODD_lfrR-5905HKVFo-1">
          <mxGeometry x="430" y="395" width="65" height="65" as="geometry" />
        </mxCell>
        <mxCell id="QjODD_lfrR-5905HKVFo-51" value="" style="verticalLabelPosition=bottom;html=1;verticalAlign=top;align=center;strokeColor=none;fillColor=#5D7F99;shape=mxgraph.azure.git_repository;fontColor=#1A1A1A;aspect=fixed;rounded=1;" vertex="1" parent="QjODD_lfrR-5905HKVFo-1">
          <mxGeometry x="552.5" y="231" width="30" height="30" as="geometry" />
        </mxCell>
        <mxCell id="QjODD_lfrR-5905HKVFo-55" value="" style="verticalLabelPosition=bottom;html=1;verticalAlign=top;align=center;strokeColor=none;fillColor=#5D7F99;shape=mxgraph.azure.git_repository;fontColor=#1A1A1A;aspect=fixed;rounded=1;" vertex="1" parent="QjODD_lfrR-5905HKVFo-1">
          <mxGeometry x="582.5" y="351" width="30" height="30" as="geometry" />
        </mxCell>
        <mxCell id="QjODD_lfrR-5905HKVFo-56" value="" style="verticalLabelPosition=bottom;html=1;verticalAlign=top;align=center;strokeColor=none;fillColor=#5D7F99;shape=mxgraph.azure.git_repository;fontColor=#1A1A1A;aspect=fixed;rounded=1;" vertex="1" parent="QjODD_lfrR-5905HKVFo-1">
          <mxGeometry x="592.5" y="231" width="30" height="30" as="geometry" />
        </mxCell>
        <mxCell id="QjODD_lfrR-5905HKVFo-57" value="" style="verticalLabelPosition=bottom;html=1;verticalAlign=top;align=center;strokeColor=none;fillColor=#5D7F99;shape=mxgraph.azure.git_repository;fontColor=#1A1A1A;aspect=fixed;rounded=1;" vertex="1" parent="QjODD_lfrR-5905HKVFo-1">
          <mxGeometry x="572.5" y="261" width="30" height="30" as="geometry" />
        </mxCell>
        <mxCell id="QjODD_lfrR-5905HKVFo-60" value="" style="verticalLabelPosition=bottom;html=1;verticalAlign=top;align=center;strokeColor=none;fillColor=#5D7F99;shape=mxgraph.azure.git_repository;fontColor=#1A1A1A;aspect=fixed;rounded=1;" vertex="1" parent="QjODD_lfrR-5905HKVFo-1">
          <mxGeometry x="552.5" y="361" width="30" height="30" as="geometry" />
        </mxCell>
        <mxCell id="QjODD_lfrR-5905HKVFo-65" value="" style="verticalLabelPosition=bottom;html=1;verticalAlign=top;align=center;strokeColor=none;fillColor=#5D7F99;shape=mxgraph.azure.git_repository;fontColor=#1A1A1A;aspect=fixed;rounded=1;" vertex="1" parent="QjODD_lfrR-5905HKVFo-1">
          <mxGeometry x="552.5" y="304" width="30" height="30" as="geometry" />
        </mxCell>
        <mxCell id="QjODD_lfrR-5905HKVFo-67" value="" style="verticalLabelPosition=bottom;html=1;verticalAlign=top;align=center;strokeColor=none;fillColor=#5D7F99;shape=mxgraph.azure.git_repository;fontColor=#1A1A1A;aspect=fixed;rounded=1;" vertex="1" parent="QjODD_lfrR-5905HKVFo-1">
          <mxGeometry x="612.5" y="266" width="30" height="30" as="geometry" />
        </mxCell>
        <mxCell id="QjODD_lfrR-5905HKVFo-68" value="" style="verticalLabelPosition=bottom;html=1;verticalAlign=top;align=center;strokeColor=none;fillColor=#5D7F99;shape=mxgraph.azure.git_repository;fontColor=#1A1A1A;aspect=fixed;rounded=1;" vertex="1" parent="QjODD_lfrR-5905HKVFo-1">
          <mxGeometry x="542.5" y="421" width="30" height="30" as="geometry" />
        </mxCell>
        <mxCell id="QjODD_lfrR-5905HKVFo-70" value="" style="edgeStyle=orthogonalEdgeStyle;orthogonalLoop=1;jettySize=auto;html=1;fontColor=#1A1A1A;strokeColor=#736CA8;curved=1;" edge="1" source="QjODD_lfrR-5905HKVFo-71" target="QjODD_lfrR-5905HKVFo-74" parent="QjODD_lfrR-5905HKVFo-1">
          <mxGeometry relative="1" as="geometry" />
        </mxCell>
        <mxCell id="QjODD_lfrR-5905HKVFo-71" value="" style="shape=image;html=1;verticalAlign=top;verticalLabelPosition=bottom;imageAspect=0;aspect=fixed;image=https://cdn0.iconfinder.com/data/icons/ikooni-outline-free-basic/128/free-11-128.png;fontColor=#1A1A1A;strokeColor=#D0CEE2;fillColor=#5D7F99;imageBackground=none;imageBorder=none;rounded=1;" vertex="1" parent="QjODD_lfrR-5905HKVFo-1">
          <mxGeometry x="170" y="211" width="65" height="65" as="geometry" />
        </mxCell>
        <mxCell id="QjODD_lfrR-5905HKVFo-72" value="" style="verticalLabelPosition=bottom;html=1;verticalAlign=top;align=center;strokeColor=none;fillColor=#5D7F99;shape=mxgraph.azure.git_repository;fontColor=#1A1A1A;aspect=fixed;rounded=1;" vertex="1" parent="QjODD_lfrR-5905HKVFo-1">
          <mxGeometry x="262.5" y="218.5" width="30" height="30" as="geometry" />
        </mxCell>
        <mxCell id="QjODD_lfrR-5905HKVFo-73" value="" style="verticalLabelPosition=bottom;html=1;verticalAlign=top;align=center;strokeColor=none;fillColor=#5D7F99;shape=mxgraph.azure.git_repository;fontColor=#1A1A1A;aspect=fixed;rounded=1;" vertex="1" parent="QjODD_lfrR-5905HKVFo-1">
          <mxGeometry x="302.5" y="218.5" width="30" height="30" as="geometry" />
        </mxCell>
        <mxCell id="QjODD_lfrR-5905HKVFo-74" value="" style="verticalLabelPosition=bottom;html=1;verticalAlign=top;align=center;strokeColor=none;fillColor=#5D7F99;shape=mxgraph.azure.git_repository;fontColor=#1A1A1A;aspect=fixed;rounded=1;" vertex="1" parent="QjODD_lfrR-5905HKVFo-1">
          <mxGeometry x="282.5" y="248.5" width="30" height="30" as="geometry" />
        </mxCell>
        <mxCell id="QjODD_lfrR-5905HKVFo-75" value="" style="verticalLabelPosition=bottom;html=1;verticalAlign=top;align=center;strokeColor=none;fillColor=#5D7F99;shape=mxgraph.azure.git_repository;fontColor=#1A1A1A;aspect=fixed;rounded=1;" vertex="1" parent="QjODD_lfrR-5905HKVFo-1">
          <mxGeometry x="322.5" y="253.5" width="30" height="30" as="geometry" />
        </mxCell>
        <mxCell id="QjODD_lfrR-5905HKVFo-76" value="" style="verticalLabelPosition=bottom;html=1;verticalAlign=top;align=center;strokeColor=none;fillColor=#5D7F99;shape=mxgraph.azure.git_repository;fontColor=#1A1A1A;aspect=fixed;rounded=1;" vertex="1" parent="QjODD_lfrR-5905HKVFo-1">
          <mxGeometry x="262.5" y="278.5" width="30" height="30" as="geometry" />
        </mxCell>
        <mxCell id="QjODD_lfrR-5905HKVFo-77" value="" style="verticalLabelPosition=bottom;html=1;verticalAlign=top;align=center;strokeColor=none;fillColor=#5D7F99;shape=mxgraph.azure.git_repository;fontColor=#1A1A1A;aspect=fixed;rounded=1;" vertex="1" parent="QjODD_lfrR-5905HKVFo-1">
          <mxGeometry x="302.5" y="278.5" width="30" height="30" as="geometry" />
        </mxCell>
        <mxCell id="QjODD_lfrR-5905HKVFo-78" value="" style="verticalLabelPosition=bottom;html=1;verticalAlign=top;align=center;strokeColor=none;fillColor=#5D7F99;shape=mxgraph.azure.git_repository;fontColor=#1A1A1A;aspect=fixed;rounded=1;" vertex="1" parent="QjODD_lfrR-5905HKVFo-1">
          <mxGeometry x="282.5" y="308.5" width="30" height="30" as="geometry" />
        </mxCell>
        <mxCell id="QjODD_lfrR-5905HKVFo-79" value="" style="verticalLabelPosition=bottom;html=1;verticalAlign=top;align=center;strokeColor=none;fillColor=#5D7F99;shape=mxgraph.azure.git_repository;fontColor=#1A1A1A;aspect=fixed;rounded=1;" vertex="1" parent="QjODD_lfrR-5905HKVFo-1">
          <mxGeometry x="322.5" y="313.5" width="30" height="30" as="geometry" />
        </mxCell>
        <mxCell id="QjODD_lfrR-5905HKVFo-80" value="" style="verticalLabelPosition=bottom;html=1;verticalAlign=top;align=center;strokeColor=none;fillColor=#5D7F99;shape=mxgraph.azure.git_repository;fontColor=#1A1A1A;aspect=fixed;rounded=1;" vertex="1" parent="QjODD_lfrR-5905HKVFo-1">
          <mxGeometry x="262.5" y="334" width="30" height="30" as="geometry" />
        </mxCell>
        <mxCell id="QjODD_lfrR-5905HKVFo-81" value="" style="verticalLabelPosition=bottom;html=1;verticalAlign=top;align=center;strokeColor=none;fillColor=#5D7F99;shape=mxgraph.azure.git_repository;fontColor=#1A1A1A;aspect=fixed;rounded=1;" vertex="1" parent="QjODD_lfrR-5905HKVFo-1">
          <mxGeometry x="302.5" y="334" width="30" height="30" as="geometry" />
        </mxCell>
        <mxCell id="QjODD_lfrR-5905HKVFo-82" value="" style="verticalLabelPosition=bottom;html=1;verticalAlign=top;align=center;strokeColor=none;fillColor=#5D7F99;shape=mxgraph.azure.git_repository;fontColor=#1A1A1A;aspect=fixed;rounded=1;" vertex="1" parent="QjODD_lfrR-5905HKVFo-1">
          <mxGeometry x="282.5" y="364" width="30" height="30" as="geometry" />
        </mxCell>
        <mxCell id="QjODD_lfrR-5905HKVFo-83" value="" style="verticalLabelPosition=bottom;html=1;verticalAlign=top;align=center;strokeColor=none;fillColor=#5D7F99;shape=mxgraph.azure.git_repository;fontColor=#1A1A1A;aspect=fixed;rounded=1;" vertex="1" parent="QjODD_lfrR-5905HKVFo-1">
          <mxGeometry x="322.5" y="369" width="30" height="30" as="geometry" />
        </mxCell>
        <mxCell id="QjODD_lfrR-5905HKVFo-84" value="" style="verticalLabelPosition=bottom;html=1;verticalAlign=top;align=center;strokeColor=none;fillColor=#5D7F99;shape=mxgraph.azure.git_repository;fontColor=#1A1A1A;aspect=fixed;rounded=1;" vertex="1" parent="QjODD_lfrR-5905HKVFo-1">
          <mxGeometry x="262.5" y="391" width="30" height="30" as="geometry" />
        </mxCell>
        <mxCell id="QjODD_lfrR-5905HKVFo-85" value="" style="verticalLabelPosition=bottom;html=1;verticalAlign=top;align=center;strokeColor=none;fillColor=#5D7F99;shape=mxgraph.azure.git_repository;fontColor=#1A1A1A;aspect=fixed;rounded=1;" vertex="1" parent="QjODD_lfrR-5905HKVFo-1">
          <mxGeometry x="302.5" y="391" width="30" height="30" as="geometry" />
        </mxCell>
        <mxCell id="QjODD_lfrR-5905HKVFo-86" value="" style="verticalLabelPosition=bottom;html=1;verticalAlign=top;align=center;strokeColor=none;fillColor=#5D7F99;shape=mxgraph.azure.git_repository;fontColor=#1A1A1A;aspect=fixed;rounded=1;" vertex="1" parent="QjODD_lfrR-5905HKVFo-1">
          <mxGeometry x="282.5" y="421" width="30" height="30" as="geometry" />
        </mxCell>
        <mxCell id="QjODD_lfrR-5905HKVFo-87" value="" style="verticalLabelPosition=bottom;html=1;verticalAlign=top;align=center;strokeColor=none;fillColor=#5D7F99;shape=mxgraph.azure.git_repository;fontColor=#1A1A1A;aspect=fixed;rounded=1;" vertex="1" parent="QjODD_lfrR-5905HKVFo-1">
          <mxGeometry x="322.5" y="426" width="30" height="30" as="geometry" />
        </mxCell>
        <mxCell id="QjODD_lfrR-5905HKVFo-88" value="" style="edgeStyle=orthogonalEdgeStyle;orthogonalLoop=1;jettySize=auto;html=1;fontColor=#1A1A1A;strokeColor=#736CA8;curved=1;" edge="1" source="QjODD_lfrR-5905HKVFo-89" target="QjODD_lfrR-5905HKVFo-99" parent="QjODD_lfrR-5905HKVFo-1">
          <mxGeometry relative="1" as="geometry" />
        </mxCell>
        <mxCell id="QjODD_lfrR-5905HKVFo-89" value="" style="shape=image;html=1;verticalAlign=top;verticalLabelPosition=bottom;imageAspect=0;aspect=fixed;image=https://cdn0.iconfinder.com/data/icons/ikooni-outline-free-basic/128/free-11-128.png;fontColor=#1A1A1A;strokeColor=#D0CEE2;fillColor=#5D7F99;imageBackground=none;rounded=1;" vertex="1" parent="QjODD_lfrR-5905HKVFo-1">
          <mxGeometry x="690" y="221" width="65" height="65" as="geometry" />
        </mxCell>
        <mxCell id="QjODD_lfrR-5905HKVFo-90" value="" style="edgeStyle=orthogonalEdgeStyle;orthogonalLoop=1;jettySize=auto;html=1;fontColor=#1A1A1A;strokeColor=#736CA8;exitX=1;exitY=0.5;exitDx=0;exitDy=0;curved=1;" edge="1" source="QjODD_lfrR-5905HKVFo-93" target="QjODD_lfrR-5905HKVFo-100" parent="QjODD_lfrR-5905HKVFo-1">
          <mxGeometry relative="1" as="geometry" />
        </mxCell>
        <mxCell id="QjODD_lfrR-5905HKVFo-91" value="" style="edgeStyle=orthogonalEdgeStyle;orthogonalLoop=1;jettySize=auto;html=1;fontColor=#1A1A1A;strokeColor=#736CA8;curved=1;" edge="1" source="QjODD_lfrR-5905HKVFo-92" target="QjODD_lfrR-5905HKVFo-101" parent="QjODD_lfrR-5905HKVFo-1">
          <mxGeometry relative="1" as="geometry" />
        </mxCell>
        <mxCell id="QjODD_lfrR-5905HKVFo-92" value="" style="shape=image;html=1;verticalAlign=top;verticalLabelPosition=bottom;imageAspect=0;aspect=fixed;image=https://cdn0.iconfinder.com/data/icons/ikooni-outline-free-basic/128/free-11-128.png;fontColor=#1A1A1A;strokeColor=#D0CEE2;fillColor=#5D7F99;imageBackground=none;rounded=1;" vertex="1" parent="QjODD_lfrR-5905HKVFo-1">
          <mxGeometry x="690" y="274" width="65" height="65" as="geometry" />
        </mxCell>
        <mxCell id="QjODD_lfrR-5905HKVFo-93" value="" style="shape=image;html=1;verticalAlign=top;verticalLabelPosition=bottom;imageAspect=0;aspect=fixed;image=https://cdn0.iconfinder.com/data/icons/ikooni-outline-free-basic/128/free-11-128.png;fontColor=#1A1A1A;strokeColor=#D0CEE2;fillColor=#5D7F99;imageBackground=none;rounded=1;" vertex="1" parent="QjODD_lfrR-5905HKVFo-1">
          <mxGeometry x="690" y="334" width="65" height="65" as="geometry" />
        </mxCell>
        <mxCell id="QjODD_lfrR-5905HKVFo-94" value="" style="edgeStyle=orthogonalEdgeStyle;orthogonalLoop=1;jettySize=auto;html=1;fontColor=#1A1A1A;strokeColor=#736CA8;curved=1;" edge="1" source="QjODD_lfrR-5905HKVFo-95" target="QjODD_lfrR-5905HKVFo-103" parent="QjODD_lfrR-5905HKVFo-1">
          <mxGeometry relative="1" as="geometry" />
        </mxCell>
        <mxCell id="QjODD_lfrR-5905HKVFo-95" value="" style="shape=image;html=1;verticalAlign=top;verticalLabelPosition=bottom;imageAspect=0;aspect=fixed;image=https://cdn0.iconfinder.com/data/icons/ikooni-outline-free-basic/128/free-11-128.png;fontColor=#1A1A1A;strokeColor=#D0CEE2;fillColor=#5D7F99;imageBackground=none;rounded=1;" vertex="1" parent="QjODD_lfrR-5905HKVFo-1">
          <mxGeometry x="690" y="395" width="65" height="65" as="geometry" />
        </mxCell>
        <mxCell id="QjODD_lfrR-5905HKVFo-96" value="" style="verticalLabelPosition=bottom;html=1;verticalAlign=top;align=center;strokeColor=none;fillColor=#5D7F99;shape=mxgraph.azure.git_repository;fontColor=#1A1A1A;aspect=fixed;rounded=1;" vertex="1" parent="QjODD_lfrR-5905HKVFo-1">
          <mxGeometry x="812.5" y="231" width="30" height="30" as="geometry" />
        </mxCell>
        <mxCell id="QjODD_lfrR-5905HKVFo-97" value="" style="verticalLabelPosition=bottom;html=1;verticalAlign=top;align=center;strokeColor=none;fillColor=#5D7F99;shape=mxgraph.azure.git_repository;fontColor=#1A1A1A;aspect=fixed;rounded=1;" vertex="1" parent="QjODD_lfrR-5905HKVFo-1">
          <mxGeometry x="842.5" y="351" width="30" height="30" as="geometry" />
        </mxCell>
        <mxCell id="QjODD_lfrR-5905HKVFo-98" value="" style="verticalLabelPosition=bottom;html=1;verticalAlign=top;align=center;strokeColor=none;fillColor=#5D7F99;shape=mxgraph.azure.git_repository;fontColor=#1A1A1A;aspect=fixed;rounded=1;" vertex="1" parent="QjODD_lfrR-5905HKVFo-1">
          <mxGeometry x="852.5" y="231" width="30" height="30" as="geometry" />
        </mxCell>
        <mxCell id="QjODD_lfrR-5905HKVFo-99" value="" style="verticalLabelPosition=bottom;html=1;verticalAlign=top;align=center;strokeColor=none;fillColor=#5D7F99;shape=mxgraph.azure.git_repository;fontColor=#1A1A1A;aspect=fixed;rounded=1;" vertex="1" parent="QjODD_lfrR-5905HKVFo-1">
          <mxGeometry x="832.5" y="261" width="30" height="30" as="geometry" />
        </mxCell>
        <mxCell id="QjODD_lfrR-5905HKVFo-100" value="" style="verticalLabelPosition=bottom;html=1;verticalAlign=top;align=center;strokeColor=none;fillColor=#5D7F99;shape=mxgraph.azure.git_repository;fontColor=#1A1A1A;aspect=fixed;rounded=1;" vertex="1" parent="QjODD_lfrR-5905HKVFo-1">
          <mxGeometry x="812.5" y="361" width="30" height="30" as="geometry" />
        </mxCell>
        <mxCell id="QjODD_lfrR-5905HKVFo-101" value="" style="verticalLabelPosition=bottom;html=1;verticalAlign=top;align=center;strokeColor=none;fillColor=#5D7F99;shape=mxgraph.azure.git_repository;fontColor=#1A1A1A;aspect=fixed;rounded=1;" vertex="1" parent="QjODD_lfrR-5905HKVFo-1">
          <mxGeometry x="812.5" y="304" width="30" height="30" as="geometry" />
        </mxCell>
        <mxCell id="QjODD_lfrR-5905HKVFo-102" value="" style="verticalLabelPosition=bottom;html=1;verticalAlign=top;align=center;strokeColor=none;fillColor=#5D7F99;shape=mxgraph.azure.git_repository;fontColor=#1A1A1A;aspect=fixed;rounded=1;" vertex="1" parent="QjODD_lfrR-5905HKVFo-1">
          <mxGeometry x="872.5" y="266" width="30" height="30" as="geometry" />
        </mxCell>
        <mxCell id="QjODD_lfrR-5905HKVFo-103" value="" style="verticalLabelPosition=bottom;html=1;verticalAlign=top;align=center;strokeColor=none;fillColor=#5D7F99;shape=mxgraph.azure.git_repository;fontColor=#1A1A1A;aspect=fixed;rounded=1;" vertex="1" parent="QjODD_lfrR-5905HKVFo-1">
          <mxGeometry x="802.5" y="421" width="30" height="30" as="geometry" />
        </mxCell>
        <mxCell id="QjODD_lfrR-5905HKVFo-104" value="Build et Tests" style="aspect=fixed;perimeter=ellipsePerimeter;html=1;align=center;shadow=0;dashed=0;fontColor=#1A1A1A;fontSize=12;spacingTop=3;image;image=img/lib/ibm/devops/build_test.svg;strokeColor=#D0CEE2;fillColor=#5D7F99;rounded=1;" vertex="1" parent="QjODD_lfrR-5905HKVFo-1">
          <mxGeometry x="766" y="530" width="60" height="60" as="geometry" />
        </mxCell>
        <mxCell id="QjODD_lfrR-5905HKVFo-106" value="Artifactory" style="aspect=fixed;perimeter=ellipsePerimeter;html=1;align=center;shadow=0;dashed=0;fontColor=#1A1A1A;fontSize=12;spacingTop=3;image;image=img/lib/ibm/devops/artifact_management.svg;strokeColor=#D0CEE2;fillColor=#5D7F99;rounded=1;" vertex="1" parent="QjODD_lfrR-5905HKVFo-1">
          <mxGeometry x="210" y="530" width="60" height="60" as="geometry" />
        </mxCell>
        <mxCell id="QjODD_lfrR-5905HKVFo-107" value="Artifactory" style="aspect=fixed;perimeter=ellipsePerimeter;html=1;align=center;shadow=0;dashed=0;fontColor=#1A1A1A;fontSize=12;spacingTop=3;image;image=img/lib/ibm/devops/artifact_management.svg;strokeColor=#D0CEE2;fillColor=#5D7F99;rounded=1;" vertex="1" parent="QjODD_lfrR-5905HKVFo-1">
          <mxGeometry x="562.5" y="560" width="60" height="60" as="geometry" />
        </mxCell>
        <mxCell id="QjODD_lfrR-5905HKVFo-108" value="XLDeploy" style="aspect=fixed;perimeter=ellipsePerimeter;html=1;align=center;shadow=0;dashed=0;fontColor=#1A1A1A;fontSize=12;spacingTop=3;image;image=img/lib/ibm/devops/continuous_deploy.svg;strokeColor=#D0CEE2;fillColor=#5D7F99;rounded=1;" vertex="1" parent="QjODD_lfrR-5905HKVFo-1">
          <mxGeometry x="752.5" y="730" width="60" height="60" as="geometry" />
        </mxCell>
        <mxCell id="QjODD_lfrR-5905HKVFo-109" value="Créer un projet" style="shape=image;html=1;verticalAlign=top;verticalLabelPosition=bottom;imageAspect=0;aspect=fixed;image=https://cdn4.iconfinder.com/data/icons/web-ui-color/128/Plus_green-128.png;fontColor=#1A1A1A;strokeColor=#D0CEE2;fillColor=#5D7F99;rounded=1;" vertex="1" parent="QjODD_lfrR-5905HKVFo-1">
          <mxGeometry x="518" y="15" width="45" height="45" as="geometry" />
        </mxCell>
        <mxCell id="QjODD_lfrR-5905HKVFo-110" value="Créer un dépôt GIT" style="shape=image;html=1;verticalAlign=top;verticalLabelPosition=bottom;imageAspect=0;aspect=fixed;image=https://cdn4.iconfinder.com/data/icons/web-ui-color/128/Plus-128.png;fontColor=#1A1A1A;strokeColor=#D0CEE2;fillColor=#5D7F99;rounded=1;" vertex="1" parent="QjODD_lfrR-5905HKVFo-1">
          <mxGeometry x="285" y="15" width="45" height="45" as="geometry" />
        </mxCell>
        <mxCell id="QjODD_lfrR-5905HKVFo-113" value="MyCloud Créer un projet Bitbucket" style="html=1;verticalLabelPosition=bottom;align=center;verticalAlign=top;strokeWidth=2;strokeColor=#D0CEE2;shadow=0;dashed=0;shape=mxgraph.ios7.icons.add;fontColor=#1A1A1A;fillColor=#5D7F99;aspect=fixed;rounded=1;" vertex="1" parent="QjODD_lfrR-5905HKVFo-1">
          <mxGeometry x="771.5" y="14" width="46" height="46" as="geometry" />
        </mxCell>
      </root>
    </mxGraphModel>
  </diagram>
</mxfile>
